<svg xmlns="http://www.w3.org/2000/svg" viewBox="0 0 32 32">
  <g id="social-logos">
    <path id="slack" d="M8.88847,19.23615a2.57693,2.57693,0,1,1-2.57693-2.57693H8.88847Zm1.29845,0a2.57694,2.57694,0,0,1,5.15387,0v6.45231a2.57694,2.57694,0,0,1-5.15387,0ZM12.76386,8.88847a2.57693,2.57693,0,1,1,2.57693-2.57693V8.88847Zm0,1.29845a2.57694,2.57694,0,1,1,0,5.15387H6.31154a2.57694,2.57694,0,0,1,0-5.15387Zm10.34767,2.57694a2.57693,2.57693,0,1,1,2.57693,2.57693H23.11153Zm-1.29845,0a2.57693,2.57693,0,1,1-5.15386,0V6.31154a2.57693,2.57693,0,1,1,5.15386,0ZM19.23615,23.11153a2.57693,2.57693,0,1,1-2.57693,2.57693V23.11153Zm0-1.29845a2.57693,2.57693,0,1,1,0-5.15386h6.45231a2.57693,2.57693,0,1,1,0,5.15386Z" fill="#262626"/>
  </g>
</svg>
