<svg xmlns="http://www.w3.org/2000/svg" viewBox="0 0 32 32">
    <path id="whatsapp" d="M24.39552,7.5552A11.84119,11.84119,0,0,0,5.76286,21.83936L4.08333,27.974l6.27577-1.64631a11.82686,11.82686,0,0,0,5.65732,1.44094h.00485A11.84352,11.84352,0,0,0,24.39552,7.5552Zm-8.37425,18.214h-.004a9.82365,9.82365,0,0,1-5.00812-1.37153l-.35931-.21316-3.72411.97686.99406-3.631-.234-.37238a9.83953,9.83953,0,1,1,8.33545,4.61117Zm5.39722-7.36933c-.29582-.14806-1.75008-.86356-2.02126-.96235s-.46835-.14806-.66551.14806-.76405.96247-.93669,1.15981c-.17246.19734-.345.22215-.64081.07409a8.08074,8.08074,0,0,1-2.37877-1.46816,8.91445,8.91445,0,0,1-1.6456-2.04926c-.17252-.296-.01834-.45618.12972-.60364.13308-.1326.29583-.34552.44371-.51828a2.01944,2.01944,0,0,0,.29577-.49334.54473.54473,0,0,0-.02464-.51828c-.074-.14807-.6655-1.60412-.912-2.19649-.24013-.57666-.484-.4985-.66556-.50773-.17234-.00851-.36974-.01043-.56689-.01043a1.08675,1.08675,0,0,0-.78881.37022,3.31746,3.31746,0,0,0-1.0353,2.46767,5.75316,5.75316,0,0,0,1.20782,3.05993,13.18546,13.18546,0,0,0,5.05314,4.46658,17.00685,17.00685,0,0,0,1.68629.62306,4.05344,4.05344,0,0,0,1.8632.11713,3.04616,3.04616,0,0,0,1.99657-1.40641,2.47268,2.47268,0,0,0,.17252-1.40666C21.91148,18.622,21.71426,18.54805,21.41849,18.39987Z" fill="#262626"/>
</svg>
